<?xml version="1.0" standalone="no"?>
<!DOCTYPE svg PUBLIC "-//W3C//DTD SVG 20010904//EN"
 "http://www.w3.org/TR/2001/REC-SVG-20010904/DTD/svg10.dtd">
<svg version="1.0" xmlns="http://www.w3.org/2000/svg"
 width="256.000000pt" height="256.000000pt" viewBox="0 0 256.000000 256.000000"
 preserveAspectRatio="xMidYMid meet">
<metadata>
Created by potrace 1.14, written by Peter Selinger 2001-2017
</metadata>
<g transform="translate(0.000000,256.000000) scale(0.100000,-0.100000)"
fill="#000000" stroke="none">
<path d="M1117 2432 c-50 -6 -55 -27 -55 -255 0 -114 -1 -210 -3 -211 -2 -2
-26 -6 -54 -10 -129 -16 -248 -50 -355 -103 -235 -116 -354 -327 -345 -610 5
-185 62 -327 175 -443 113 -115 270 -188 485 -227 l100 -18 0 -202 c0 -152 3
-205 13 -215 9 -10 63 -14 200 -16 177 -3 189 -2 206 17 16 17 18 42 19 220
l1 200 50 6 c153 20 333 84 433 154 67 47 173 154 173 175 0 5 7 17 15 26 17
19 62 136 70 182 3 18 8 45 11 59 7 35 7 188 0 219 -4 14 -8 37 -11 53 -34
183 -162 337 -357 431 -79 38 -222 79 -318 91 -30 4 -58 9 -61 11 -3 2 -6 101
-6 220 -1 178 -3 219 -16 231 -12 12 -48 15 -178 16 -90 1 -176 1 -192 -1z
m-54 -1159 c-1 -164 -2 -303 -2 -310 -1 -6 -9 -10 -19 -8 -98 18 -191 69 -227
123 -41 62 -53 111 -51 204 3 71 7 93 31 136 29 53 71 93 122 113 15 6 37 15
48 20 24 10 53 16 80 18 20 1 20 -5 18 -296z m529 278 c110 -38 153 -72 189
-149 39 -84 28 -239 -23 -316 -38 -57 -131 -111 -224 -129 l-31 -6 -1 310 c0
351 -9 324 90 290z"/>
</g>
</svg>
