<svg width="256" height="253" viewBox="0 0 256 253" fill="none" xmlns="http://www.w3.org/2000/svg">
<g filter="url(#filter0_i_13_60)">
<rect width="256" height="253" rx="20" transform="matrix(1 0 0 -1 0 253)" fill="url(#paint0_linear_13_60)"/>
</g>
<path d="M59.4877 179.096H35V74.1589H59.4877V179.096ZM155.206 93.461H125.677V179.096H101.333V93.461H71.8036V74.1589H155.206V93.461ZM225.5 95.4776C224.915 96.4779 224.145 97.3578 223.231 98.0705C222.33 98.679 221.257 98.9819 220.17 98.9347C218.913 98.8915 217.687 98.5324 216.605 97.8904C215.333 97.1942 213.892 96.4139 212.284 95.5497C210.516 94.6172 208.673 93.8343 206.774 93.2089C204.494 92.4798 202.11 92.1271 199.716 92.1646C195.154 92.1646 191.757 93.1369 189.525 95.0815C188.413 96.0624 187.535 97.2799 186.955 98.6447C186.376 100.009 186.109 101.487 186.176 102.968C186.145 103.934 186.308 104.897 186.654 105.8C187 106.703 187.523 107.528 188.192 108.226C189.719 109.743 191.514 110.964 193.486 111.827C195.914 112.926 198.417 113.852 200.976 114.6C203.785 115.44 206.654 116.376 209.583 117.409C212.523 118.446 215.397 119.66 218.19 121.046C220.957 122.408 223.486 124.208 225.68 126.375C227.935 128.64 229.732 131.317 230.974 134.262C232.404 137.818 233.091 141.63 232.99 145.461C233.026 150.118 232.171 154.739 230.47 159.074C228.834 163.23 226.344 166.997 223.159 170.129C219.778 173.393 215.756 175.919 211.348 177.548C206.241 179.422 200.833 180.338 195.395 180.248C192.045 180.24 188.703 179.902 185.419 179.24C182.066 178.577 178.777 177.625 175.588 176.395C172.49 175.205 169.502 173.747 166.657 172.038C164.014 170.467 161.571 168.58 159.383 166.42L166.585 155.04C167.186 154.202 167.96 153.502 168.854 152.988C169.78 152.438 170.838 152.152 171.915 152.16C173.468 152.194 174.979 152.668 176.273 153.528C177.737 154.44 179.394 155.449 181.242 156.553C183.275 157.745 185.407 158.757 187.616 159.578C190.343 160.545 193.222 161.008 196.115 160.946C200.532 160.946 203.965 159.974 206.414 158.029C208.863 156.085 210.087 153 210.087 148.774C210.182 146.6 209.463 144.469 208.071 142.797C206.595 141.165 204.791 139.864 202.777 138.979C200.368 137.891 197.875 136.999 195.323 136.315C192.538 135.546 189.681 134.694 186.752 133.758C183.814 132.818 180.949 131.662 178.181 130.301C175.406 128.939 172.885 127.112 170.727 124.899C168.429 122.49 166.63 119.651 165.433 116.544C164.089 113.207 163.416 109.09 163.416 104.192C163.422 100.23 164.23 96.3098 165.793 92.6688C167.405 88.8846 169.784 85.4758 172.779 82.6576C176.055 79.6021 179.896 77.2166 184.087 75.6354C188.991 73.8055 194.195 72.9138 199.428 73.0066C202.576 73.001 205.72 73.2539 208.827 73.7628C211.781 74.2426 214.686 74.9899 217.506 75.9955C220.162 76.9426 222.729 78.1236 225.176 79.5246C227.467 80.8306 229.605 82.3888 231.55 84.1701L225.5 95.4776Z" fill="white"/>
<path d="M256 70.5V73.5H234.39L214.506 54.1386L214.022 0H217.022L217.494 52.8615L235.61 70.5H256Z" fill="white" fill-opacity="0.4"/>
<path fill-rule="evenodd" clip-rule="evenodd" d="M256 120.53V116.363L242 129.863V141.729C239.971 142.366 238.5 144.261 238.5 146.5C238.5 149.261 240.739 151.5 243.5 151.5C246.261 151.5 248.5 149.261 248.5 146.5C248.5 144.261 247.029 142.366 245 141.729V131.137L256 120.53ZM243.5 144.5C242.395 144.5 241.5 145.395 241.5 146.5C241.5 147.605 242.395 148.5 243.5 148.5C244.605 148.5 245.5 147.605 245.5 146.5C245.5 145.395 244.605 144.5 243.5 144.5Z" fill="white" fill-opacity="0.4"/>
<path fill-rule="evenodd" clip-rule="evenodd" d="M0 180.929V188.071C0.901875 188.955 2.13727 189.5 3.5 189.5C6.26142 189.5 8.5 187.261 8.5 184.5C8.5 183.545 8.23244 182.653 7.76821 181.894L36 154.5L35.5 151L5.49876 179.915C4.88662 179.648 4.21062 179.5 3.5 179.5C2.13727 179.5 0.901875 180.045 0 180.929ZM3.5 182.5C2.39543 182.5 1.5 183.395 1.5 184.5C1.5 185.605 2.39543 186.5 3.5 186.5C4.60457 186.5 5.5 185.605 5.5 184.5C5.5 183.395 4.60457 182.5 3.5 182.5Z" fill="white" fill-opacity="0.4"/>
<path fill-rule="evenodd" clip-rule="evenodd" d="M4.80131 246C5.75351 247.113 6.82604 248.12 7.99997 249H37.625L93.2889 192.872L103.899 203H127.392L161.392 236H220.729C221.366 238.029 223.261 239.5 225.5 239.5C228.261 239.5 230.5 237.261 230.5 234.5C230.5 231.739 228.261 229.5 225.5 229.5C223.261 229.5 221.366 230.971 220.729 233H162.608L128.608 200H105.101L95.4018 190.742L97.625 188.5H124.6C125.063 190.782 127.081 192.5 129.5 192.5C130.205 192.5 130.877 192.354 131.485 192.09L162.886 223H227.621L236.869 213.753C237.633 214.226 238.535 214.5 239.5 214.5C242.261 214.5 244.5 212.261 244.5 209.5C244.5 209.077 244.447 208.666 244.348 208.273L256 196.621V192.379L242.711 205.667C241.843 204.939 240.723 204.5 239.5 204.5C236.739 204.5 234.5 206.739 234.5 209.5C234.5 210.201 234.644 210.868 234.905 211.474L226.379 220H164.114L133.76 190.12C134.229 189.358 134.5 188.461 134.5 187.5C134.5 184.739 132.261 182.5 129.5 182.5C127.45 182.5 125.688 183.734 124.916 185.5H96.375L36.375 246H4.80131ZM239.5 207.5C238.395 207.5 237.5 208.395 237.5 209.5C237.5 210.605 238.395 211.5 239.5 211.5C240.605 211.5 241.5 210.605 241.5 209.5C241.5 208.395 240.605 207.5 239.5 207.5ZM129.5 185.5C128.395 185.5 127.5 186.395 127.5 187.5C127.5 188.605 128.395 189.5 129.5 189.5C130.605 189.5 131.5 188.605 131.5 187.5C131.5 186.395 130.605 185.5 129.5 185.5ZM223.5 234.5C223.5 233.395 224.395 232.5 225.5 232.5C226.605 232.5 227.5 233.395 227.5 234.5C227.5 235.605 226.605 236.5 225.5 236.5C224.395 236.5 223.5 235.605 223.5 234.5Z" fill="white" fill-opacity="0.4"/>
<path fill-rule="evenodd" clip-rule="evenodd" d="M256 162.965V167.053L243.762 178.883C244.23 179.645 244.5 180.541 244.5 181.5C244.5 184.261 242.261 186.5 239.5 186.5C238.391 186.5 237.366 186.139 236.537 185.528L228.096 193.5H163.391L129 160V155.5L164.609 190.5H226.904L234.756 183.084C234.59 182.586 234.5 182.054 234.5 181.5C234.5 178.739 236.739 176.5 239.5 176.5C240.206 176.5 240.878 176.646 241.486 176.91L255.958 162.922L256 162.965ZM237.5 181.5C237.5 180.395 238.395 179.5 239.5 179.5C240.605 179.5 241.5 180.395 241.5 181.5C241.5 182.605 240.605 183.5 239.5 183.5C238.395 183.5 237.5 182.605 237.5 181.5Z" fill="white" fill-opacity="0.4"/>
<path fill-rule="evenodd" clip-rule="evenodd" d="M256 62.5V59.5H249.084C248.312 57.7341 246.55 56.5 244.5 56.5C243.666 56.5 242.879 56.7044 242.187 57.0659L228.5 43.3787V0.00649398C227.549 0.00206115 226.551 0.000654196 225.5 0.000207638V44.6213L240.066 59.1872C239.704 59.8788 239.5 60.6655 239.5 61.5C239.5 64.2614 241.739 66.5 244.5 66.5C246.919 66.5 248.937 64.7822 249.4 62.5H256ZM244.5 59.5C243.395 59.5 242.5 60.3954 242.5 61.5C242.5 62.6046 243.395 63.5 244.5 63.5C245.605 63.5 246.5 62.6046 246.5 61.5C246.5 60.3954 245.605 59.5 244.5 59.5Z" fill="white" fill-opacity="0.4"/>
<path d="M255.099 14.5226L244.5 25.1214V33.3787L254.887 43.7658C255.242 43.645 255.615 43.563 256 43.5247V46.563C255.137 46.785 254.5 47.5681 254.5 48.5C254.5 49.4319 255.137 50.215 256 50.437V53.4753C253.473 53.2244 251.5 51.0927 251.5 48.5C251.5 47.4054 251.852 46.393 252.448 45.5696L241.5 34.6213V0.906447C242.592 1.16035 243.579 1.48536 244.5 1.90142V20.8788L254.029 11.3494C254.482 12.3194 254.83 13.3616 255.099 14.5226Z" fill="white" fill-opacity="0.4"/>
<path d="M92 46.1302L139.072 0H134.786L89 44.8698V69.5H92V46.1302Z" fill="white" fill-opacity="0.4"/>
<path fill-rule="evenodd" clip-rule="evenodd" d="M118.879 0H123.121L93.1213 30H76.2711C75.634 32.0285 73.7388 33.5 71.5 33.5C68.7386 33.5 66.5 31.2614 66.5 28.5C66.5 25.7386 68.7386 23.5 71.5 23.5C73.7388 23.5 75.634 24.9714 76.2711 27H91.8787L118.879 0ZM69.5 28.5C69.5 27.3954 70.3954 26.5 71.5 26.5C72.6046 26.5 73.5 27.3954 73.5 28.5C73.5 29.6046 72.6046 30.5 71.5 30.5C70.3954 30.5 69.5 29.6046 69.5 28.5Z" fill="white" fill-opacity="0.4"/>
<path fill-rule="evenodd" clip-rule="evenodd" d="M162.5 9.5C162.5 6.73858 164.739 4.5 167.5 4.5C170.261 4.5 172.5 6.73858 172.5 9.5C172.5 12.2614 170.261 14.5 167.5 14.5C166.535 14.5 165.633 14.2264 164.869 13.7525L135.5 43.1213V69H132.5V41.8787L162.905 11.4739C162.644 10.8684 162.5 10.201 162.5 9.5ZM167.5 7.5C166.395 7.5 165.5 8.39543 165.5 9.5C165.5 10.6046 166.395 11.5 167.5 11.5C168.605 11.5 169.5 10.6046 169.5 9.5C169.5 8.39543 168.605 7.5 167.5 7.5Z" fill="white" fill-opacity="0.4"/>
<path fill-rule="evenodd" clip-rule="evenodd" d="M171.5 19.5C168.739 19.5 166.5 21.7386 166.5 24.5C166.5 25.4654 166.774 26.3669 167.247 27.1312L152.5 41.8787V69.5H155.5V43.1213L169.526 29.0953C170.132 29.3557 170.799 29.5 171.5 29.5C174.261 29.5 176.5 27.2614 176.5 24.5C176.5 21.7386 174.261 19.5 171.5 19.5ZM169.5 24.5C169.5 23.3954 170.395 22.5 171.5 22.5C172.605 22.5 173.5 23.3954 173.5 24.5C173.5 25.6046 172.605 26.5 171.5 26.5C170.395 26.5 169.5 25.6046 169.5 24.5Z" fill="white" fill-opacity="0.4"/>
<path fill-rule="evenodd" clip-rule="evenodd" d="M66.5 119.5C66.5 116.739 68.7386 114.5 71.5 114.5C73.5503 114.5 75.3124 115.734 76.084 117.5H101V120.5H76.4C75.9367 122.782 73.919 124.5 71.5 124.5C68.7386 124.5 66.5 122.261 66.5 119.5ZM71.5 117.5C70.3954 117.5 69.5 118.395 69.5 119.5C69.5 120.605 70.3954 121.5 71.5 121.5C72.6046 121.5 73.5 120.605 73.5 119.5C73.5 118.395 72.6046 117.5 71.5 117.5Z" fill="white" fill-opacity="0.4"/>
<path fill-rule="evenodd" clip-rule="evenodd" d="M145.5 112.5C144.666 112.5 143.879 112.704 143.187 113.066L135 104.879V93.5H132V106.121L141.066 115.187C140.704 115.879 140.5 116.666 140.5 117.5C140.5 120.261 142.739 122.5 145.5 122.5C148.261 122.5 150.5 120.261 150.5 117.5C150.5 114.739 148.261 112.5 145.5 112.5ZM143.5 117.5C143.5 116.395 144.395 115.5 145.5 115.5C146.605 115.5 147.5 116.395 147.5 117.5C147.5 118.605 146.605 119.5 145.5 119.5C144.395 119.5 143.5 118.605 143.5 117.5Z" fill="white" fill-opacity="0.4"/>
<path fill-rule="evenodd" clip-rule="evenodd" d="M80.5 181.5C77.7386 181.5 75.5 183.739 75.5 186.5C75.5 187.331 75.7027 188.115 76.0614 188.804L44.1375 220.251C43.3719 219.775 42.4681 219.5 41.5 219.5C38.7386 219.5 36.5 221.739 36.5 224.5C36.5 227.261 38.7386 229.5 41.5 229.5C44.2614 229.5 46.5 227.261 46.5 224.5C46.5 223.801 46.3566 223.136 46.0977 222.532L78.1786 190.93C78.8723 191.294 79.6621 191.5 80.5 191.5C83.2614 191.5 85.5 189.261 85.5 186.5C85.5 183.739 83.2614 181.5 80.5 181.5ZM78.5 186.5C78.5 185.395 79.3954 184.5 80.5 184.5C81.6046 184.5 82.5 185.395 82.5 186.5C82.5 187.605 81.6046 188.5 80.5 188.5C79.3954 188.5 78.5 187.605 78.5 186.5ZM41.5 222.5C40.3954 222.5 39.5 223.395 39.5 224.5C39.5 225.605 40.3954 226.5 41.5 226.5C42.6046 226.5 43.5 225.605 43.5 224.5C43.5 223.395 42.6046 222.5 41.5 222.5Z" fill="white" fill-opacity="0.4"/>
<path fill-rule="evenodd" clip-rule="evenodd" d="M34.5 207.5C34.5 205.261 35.9714 203.366 38 202.729V189.853L46.5 182H50.5L41 191.147V202.729C43.0286 203.366 44.5 205.261 44.5 207.5C44.5 210.261 42.2614 212.5 39.5 212.5C36.7386 212.5 34.5 210.261 34.5 207.5ZM37.5 207.5C37.5 206.395 38.3954 205.5 39.5 205.5C40.6046 205.5 41.5 206.395 41.5 207.5C41.5 208.605 40.6046 209.5 39.5 209.5C38.3954 209.5 37.5 208.605 37.5 207.5Z" fill="white" fill-opacity="0.4"/>
<path fill-rule="evenodd" clip-rule="evenodd" d="M20.5 194.5C20.5 191.739 22.7386 189.5 25.5 189.5C28.2614 189.5 30.5 191.739 30.5 194.5C30.5 197.261 28.2614 199.5 25.5 199.5C22.7386 199.5 20.5 197.261 20.5 194.5ZM25.5 192.5C24.3954 192.5 23.5 193.395 23.5 194.5C23.5 195.605 24.3954 196.5 25.5 196.5C26.6046 196.5 27.5 195.605 27.5 194.5C27.5 193.395 26.6046 192.5 25.5 192.5Z" fill="white" fill-opacity="0.4"/>
<path fill-rule="evenodd" clip-rule="evenodd" d="M19 21C19 20.1656 18.7956 19.3789 18.4341 18.6873L37.1214 0H32.8788L16.3129 16.5659C15.6212 16.2044 14.8345 16 14 16C11.2386 16 9 18.2386 9 21C9 23.7614 11.2386 26 14 26C16.7614 26 19 23.7614 19 21ZM14 23C15.1046 23 16 22.1046 16 21C16 19.8954 15.1046 19 14 19C12.8954 19 12 19.8954 12 21C12 22.1046 12.8954 23 14 23Z" fill="white" fill-opacity="0.4"/>
<path fill-rule="evenodd" clip-rule="evenodd" d="M6.50011 77.1213L0 70.6212V66.3786L9.50011 75.8787V88.2289C11.5286 88.8661 13 90.7612 13 93C13 95.7614 10.7614 98 8 98C5.23858 98 3 95.7614 3 93C3 90.7611 4.4715 88.866 6.50011 88.2289V77.1213ZM8 95C9.10457 95 10 94.1046 10 93C10 91.8954 9.10457 91 8 91C6.89543 91 6 91.8954 6 93C6 94.1046 6.89543 95 8 95Z" fill="white" fill-opacity="0.4"/>
<path fill-rule="evenodd" clip-rule="evenodd" d="M203.5 0V27.2597L196.42 32.924C195.718 31.7704 194.449 31 193 31C190.791 31 189 32.7908 189 35C189 37.2092 190.791 39 193 39C195.209 39 197 37.2092 197 35C197 34.6075 196.943 34.2283 196.838 33.8699L204.5 27.7403V0H203.5ZM196 35C196 36.6569 194.657 38 193 38C191.343 38 190 36.6569 190 35C190 33.3431 191.343 32 193 32C194.657 32 196 33.3431 196 35Z" fill="white" fill-opacity="0.4"/>
<path fill-rule="evenodd" clip-rule="evenodd" d="M256 220.746L249.853 226.454C249.299 226.164 248.669 226 248 226C245.791 226 244 227.791 244 230C244 230.92 244.311 231.768 244.833 232.444L235.514 241.297C235.047 241.105 234.536 241 234 241C231.791 241 230 242.791 230 245C230 247.209 231.791 249 234 249C236.209 249 238 247.209 238 245C238 243.701 237.38 242.546 236.42 241.815L245.538 233.153C246.217 233.684 247.072 234 248 234C249.864 234 251.43 232.725 251.874 231H255.903C255.914 230.674 255.924 230.341 255.933 230H252C252 228.827 251.495 227.772 250.691 227.04L256 222.111L256 220.746ZM248 227C249.657 227 251 228.343 251 230C251 231.657 249.657 233 248 233C246.343 233 245 231.657 245 230C245 228.343 246.343 227 248 227ZM234 248C235.657 248 237 246.657 237 245C237 243.343 235.657 242 234 242C232.343 242 231 243.343 231 245C231 246.657 232.343 248 234 248Z" fill="white" fill-opacity="0.4"/>
<path fill-rule="evenodd" clip-rule="evenodd" d="M184 246V253H183V245H213.126C213.57 243.275 215.136 242 217 242C219.209 242 221 243.791 221 246C221 248.209 219.209 250 217 250C214.791 250 213 248.209 213 246H184ZM220 246C220 247.657 218.657 249 217 249C215.343 249 214 247.657 214 246C214 244.343 215.343 243 217 243C218.657 243 220 244.343 220 246Z" fill="white" fill-opacity="0.4"/>
<path fill-rule="evenodd" clip-rule="evenodd" d="M167.207 253L159.707 245.5H154.5V245.53L151.5 242.78V235.293L138.707 222.5H129.709C129.176 221.182 127.96 220.213 126.5 220.031V216.969C128.473 216.723 130 215.04 130 213C130 210.791 128.209 209 126 209C123.791 209 122 210.791 122 213C122 215.04 123.527 216.723 125.5 216.969V220.031C125.021 220.091 124.567 220.235 124.156 220.449L114.707 211H88.874C88.4299 209.275 86.864 208 85 208C82.7908 208 81 209.791 81 212C81 214.209 82.7908 216 85 216C87.2092 216 89 214.209 89 212H114.293L123.322 221.029C122.51 221.761 122 222.821 122 224C122 224.226 122.019 224.448 122.055 224.664L114.382 228.5H72V229C72 226.791 70.2092 225 68 225C65.7908 225 64 226.791 64 229C64 231.209 65.7908 233 68 233C70.2092 233 72 231.209 72 229V229.5H114.618L122.348 225.635C122.973 227.029 124.373 228 126 228V235.5H96.969C96.7229 233.527 95.0398 232 93 232C90.7908 232 89 233.791 89 236C89 238.209 90.7908 240 93 240C95.0398 240 96.7229 238.473 96.969 236.5H127V227.874C127.913 227.639 128.699 227.09 129.238 226.349L131.437 228.181C131.157 228.727 131 229.345 131 230C131 232.209 132.791 234 135 234C137.209 234 139 232.209 139 230C139 227.791 137.209 226 135 226C133.807 226 132.735 226.523 132.002 227.351L129.727 225.455C129.903 225.004 130 224.513 130 224C130 223.831 129.99 223.664 129.969 223.5H138.293L150.5 235.707V243.22L161.169 253H162.649L155.558 246.5H159.293L165.793 253H167.207ZM129 224C129 225.657 127.657 227 126 227C124.343 227 123 225.657 123 224C123 222.343 124.343 221 126 221C127.657 221 129 222.343 129 224ZM135 233C136.657 233 138 231.657 138 230C138 228.343 136.657 227 135 227C133.343 227 132 228.343 132 230C132 231.657 133.343 233 135 233ZM129 213C129 214.657 127.657 216 126 216C124.343 216 123 214.657 123 213C123 211.343 124.343 210 126 210C127.657 210 129 211.343 129 213ZM85 215C86.6567 215 88 213.657 88 212C88 210.343 86.6567 209 85 209C83.3433 209 82 210.343 82 212C82 213.657 83.3433 215 85 215ZM96 236C96 237.657 94.6567 239 93 239C91.3433 239 90 237.657 90 236C90 234.343 91.3433 233 93 233C94.6567 233 96 234.343 96 236ZM68 232C69.6567 232 71 230.657 71 229C71 227.343 69.6567 226 68 226C66.3433 226 65 227.343 65 229C65 230.657 66.3433 232 68 232Z" fill="white" fill-opacity="0.4"/>
<path fill-rule="evenodd" clip-rule="evenodd" d="M74.2664 239.92L60.7196 253H59.9999L59.6526 252.64L73.6257 239.149C73.2295 238.528 73 237.791 73 237C73 234.791 74.7908 233 77 233C79.2092 233 81 234.791 81 237C81 239.209 79.2092 241 77 241C75.9429 241 74.9814 240.59 74.2664 239.92ZM80 237C80 238.657 78.6567 240 77 240C75.3433 240 74 238.657 74 237C74 235.343 75.3433 234 77 234C78.6567 234 80 235.343 80 237Z" fill="white" fill-opacity="0.4"/>
<path fill-rule="evenodd" clip-rule="evenodd" d="M0 168L0.348389 168.358L18.2759 150.929C18.99 151.594 19.9475 152 21 152C23.2092 152 25 150.209 25 148C25 147.076 24.6865 146.224 24.1599 145.547L29.707 140H35V139H29.293L23.4529 144.84C22.7756 144.314 21.9243 144 21 144C19.948 144 18.9912 144.406 18.2771 145.07L16.3672 143.16C16.7676 142.537 17 141.796 17 141C17 138.791 15.2092 137 13 137C10.7908 137 9 138.791 9 141C9 143.209 10.7908 145 13 145C14.052 145 15.009 144.594 15.7231 143.93L17.6328 145.84C17.3176 146.33 17.1064 146.894 17.031 147.5H2.79297L0 150.293V151.707L3.20703 148.5H17.031C17.0564 148.703 17.0967 148.901 17.1511 149.093L8.71997 152.069L0 161.273V162L0.363037 162.344L9.28003 152.931L17.5437 150.015L17.584 150.082L17.6326 150.16L0 167.303V168ZM21 151C22.6567 151 24 149.657 24 148C24 146.343 22.6567 145 21 145C19.3433 145 18 146.343 18 148C18 149.657 19.3433 151 21 151ZM16 141C16 142.657 14.6567 144 13 144C11.3433 144 10 142.657 10 141C10 139.343 11.3433 138 13 138C14.6567 138 16 139.343 16 141Z" fill="white" fill-opacity="0.4"/>
<path fill-rule="evenodd" clip-rule="evenodd" d="M88 144H58.5V143H88.126C88.5701 141.275 90.136 140 92 140C94.2092 140 96 141.791 96 144C96 146.209 94.2092 148 92 148C89.7908 148 88 146.209 88 144ZM95 144C95 145.657 93.6567 147 92 147C90.3433 147 89 145.657 89 144C89 142.343 90.3433 141 92 141C93.6567 141 95 142.343 95 144Z" fill="white" fill-opacity="0.4"/>
<path fill-rule="evenodd" clip-rule="evenodd" d="M210 150.5H196.969C196.723 148.527 195.04 147 193 147C190.791 147 189 148.791 189 151C189 153.209 190.791 155 193 155C195.04 155 196.723 153.473 196.969 151.5H210V150.5ZM196 151C196 149.343 194.657 148 193 148C191.343 148 190 149.343 190 151C190 152.657 191.343 154 193 154C194.657 154 196 152.657 196 151Z" fill="white" fill-opacity="0.4"/>
<path fill-rule="evenodd" clip-rule="evenodd" d="M69.5 186V191.707L43.707 217.5H27.2014L14.3748 229.852C14.7705 230.472 15 231.209 15 232H27C27 229.791 28.7908 228 31 228C33.2092 228 35 229.791 35 232C35 234.209 33.2092 236 31 236C29.136 236 27.5701 234.725 27.126 233H14.874C14.4299 234.725 12.864 236 11 236C8.79077 236 7 234.209 7 232C7 230.54 7.78247 229.262 8.95117 228.564L0.0751953 214.264L0.924805 213.736L9.8772 228.16C10.0496 228.109 10.2266 228.07 10.4075 228.044C10.6008 228.015 10.7986 228 11 228C11.293 228 11.5786 228.031 11.8535 228.091L17.0801 216.213L22.8398 210.453C22.3135 209.775 22 208.924 22 208C22 205.791 23.7908 204 26 204C28.2092 204 30 205.791 30 208C30 210.209 28.2092 212 26 212C25.0757 212 24.2244 211.686 23.5471 211.16L17.9197 216.787L12.7986 228.426C13.1416 228.599 13.4565 228.82 13.7341 229.08L26.7983 216.5H43.2927L68.5 191.293V186H69H69.5ZM26 211C27.6567 211 29 209.657 29 208C29 206.343 27.6567 205 26 205C24.3433 205 23 206.343 23 208C23 209.657 24.3433 211 26 211ZM34 232C34 233.657 32.6567 235 31 235C29.3433 235 28 233.657 28 232C28 230.343 29.3433 229 31 229C32.6567 229 34 230.343 34 232ZM14 232C14 233.657 12.6567 235 11 235C9.34326 235 8 233.657 8 232C8 230.343 9.34326 229 11 229C12.6567 229 14 230.343 14 232Z" fill="white" fill-opacity="0.4"/>
<path d="M7 232V233H0.5V232H7Z" fill="white" fill-opacity="0.4"/>
<path fill-rule="evenodd" clip-rule="evenodd" d="M73 182C73 184.209 71.2092 186 69 186C66.7908 186 65 184.209 65 182C65 179.791 66.7908 178 69 178C71.2092 178 73 179.791 73 182ZM69 185C70.6567 185 72 183.657 72 182C72 180.343 70.6567 179 69 179C67.3433 179 66 180.343 66 182C66 183.657 67.3433 185 69 185Z" fill="white" fill-opacity="0.4"/>
<path fill-rule="evenodd" clip-rule="evenodd" d="M121.5 74V63.9691C119.527 63.723 118 62.0399 118 60C118 57.7908 119.791 56 122 56C124.209 56 126 57.7908 126 60C126 62.0399 124.473 63.723 122.5 63.9691V74H121.5ZM122 63C123.657 63 125 61.6569 125 60C125 58.3431 123.657 57 122 57C120.343 57 119 58.3431 119 60C119 61.6569 120.343 63 122 63Z" fill="white" fill-opacity="0.4"/>
<path fill-rule="evenodd" clip-rule="evenodd" d="M191 13C191 15.2092 189.209 17 187 17V42.289L224.849 79.1418L224.151 79.8582L186 42.711V16.874C184.275 16.4299 183 14.8639 183 13C183 10.7908 184.791 9 187 9C189.209 9 191 10.7908 191 13ZM187 16C188.657 16 190 14.6569 190 13C190 11.3431 188.657 10 187 10C185.343 10 184 11.3431 184 13C184 14.6569 185.343 16 187 16Z" fill="white" fill-opacity="0.4"/>
<path d="M204.793 67H176V66H205.207L215.5 75.5L214.793 76.2072L204.793 67Z" fill="white" fill-opacity="0.4"/>
<path fill-rule="evenodd" clip-rule="evenodd" d="M176 66C176 68.2092 174.209 70 172 70C169.791 70 168 68.2092 168 66C168 63.7908 169.791 62 172 62C174.209 62 176 63.7908 176 66ZM175 66C175 67.6569 173.657 69 172 69C170.343 69 169 67.6569 169 66C169 64.3431 170.343 63 172 63C173.657 63 175 64.3431 175 66Z" fill="white" fill-opacity="0.4"/>
<path fill-rule="evenodd" clip-rule="evenodd" d="M238 234C240.209 234 242 232.209 242 230C242 227.791 240.209 226 238 226C235.791 226 234 227.791 234 230C234 232.209 235.791 234 238 234ZM238 233C239.657 233 241 231.657 241 230C241 228.343 239.657 227 238 227C236.343 227 235 228.343 235 230C235 231.657 236.343 233 238 233Z" fill="white" fill-opacity="0.4"/>
<path fill-rule="evenodd" clip-rule="evenodd" d="M22 240C22 242.209 20.2092 244 18 244C15.7908 244 14 242.209 14 240C14 237.791 15.7908 236 18 236C20.2092 236 22 237.791 22 240ZM21 240C21 241.657 19.6567 243 18 243C16.3433 243 15 241.657 15 240C15 238.343 16.3433 237 18 237C19.6567 237 21 238.343 21 240Z" fill="white" fill-opacity="0.4"/>
<path fill-rule="evenodd" clip-rule="evenodd" d="M0 59C1.86384 59 3.42994 57.7252 3.87398 56H15.7032L18.5 61.1275V97.6849L27.4592 108.137C27.166 108.694 27 109.327 27 110C27 112.209 28.7909 114 31 114C33.2091 114 35 112.209 35 110C35 107.791 33.2091 106 31 106H31.5V34H44V33C44 35.2091 45.7909 37 48 37C50.2091 37 52 35.2091 52 33C52 30.7909 50.2091 29 48 29C45.7909 29 44 30.7909 44 33H30.5V106H31C30.616 106 30.2446 106.054 29.8931 106.155L25.5 96.3927V34.2038L47.2104 12H76C76 14.2091 77.7909 16 80 16C82.2091 16 84 14.2091 84 12C84 9.79086 82.2091 8 80 8C78.1362 8 76.5701 9.27477 76.126 11H46.7896L24.5 33.7962V96.6073L28.9743 106.55C28.6314 106.752 28.3213 107.003 28.0538 107.294L19.5 97.315V34.2071L53.7071 0H52.2929L18.5 33.7929V51.5392L16.2968 47.5H1V48.5H15.7032L18.5 53.6275V59.0392L16.2968 55H4C4 52.7909 2.20914 51 0 51V52C1.65685 52 3 53.3431 3 55C3 56.6569 1.65685 58 0 58V59ZM51 33C51 34.6569 49.6569 36 48 36C46.3431 36 45 34.6569 45 33C45 31.3431 46.3431 30 48 30C49.6569 30 51 31.3431 51 33ZM80 15C81.6569 15 83 13.6569 83 12C83 10.3431 81.6569 9 80 9C78.3431 9 77 10.3431 77 12C77 13.6569 78.3431 15 80 15ZM31 113C32.6569 113 34 111.657 34 110C34 108.343 32.6569 107 31 107C29.3431 107 28 108.343 28 110C28 111.657 29.3431 113 31 113Z" fill="white" fill-opacity="0.4"/>
<path fill-rule="evenodd" clip-rule="evenodd" d="M129.776 0L91.7948 37.5H80.7235L83.4015 43.3915L74.1601 52.6328C73.5371 52.2323 72.7957 52 72 52C69.7909 52 68 53.7909 68 56C68 58.2091 69.7909 60 72 60C74.2091 60 76 58.2091 76 56C76 54.9481 75.594 53.9911 74.9301 53.277L84.5986 43.6086L82.2765 38.5H92.2053L131.199 0H129.776ZM75 56C75 57.6569 73.6569 59 72 59C70.3431 59 69 57.6569 69 56C69 54.3431 70.3431 53 72 53C73.6569 53 75 54.3431 75 56Z" fill="white" fill-opacity="0.4"/>
<path fill-rule="evenodd" clip-rule="evenodd" d="M55 64C55 66.2091 53.2091 68 51 68C48.7909 68 47 66.2091 47 64C47 61.7909 48.7909 60 51 60C53.2091 60 55 61.7909 55 64ZM54 64C54 65.6569 52.6569 67 51 67C49.3431 67 48 65.6569 48 64C48 62.3431 49.3431 61 51 61C52.6569 61 54 62.3431 54 64Z" fill="white" fill-opacity="0.4"/>
<path d="M47 63.5V64V64.5H40.5V74H39.5V63.5H47Z" fill="white" fill-opacity="0.4"/>
<defs>
<filter id="filter0_i_13_60" x="0" y="0" width="260" height="253" filterUnits="userSpaceOnUse" color-interpolation-filters="sRGB">
<feFlood flood-opacity="0" result="BackgroundImageFix"/>
<feBlend mode="normal" in="SourceGraphic" in2="BackgroundImageFix" result="shape"/>
<feColorMatrix in="SourceAlpha" type="matrix" values="0 0 0 0 0 0 0 0 0 0 0 0 0 0 0 0 0 0 127 0" result="hardAlpha"/>
<feOffset dx="4"/>
<feGaussianBlur stdDeviation="10"/>
<feComposite in2="hardAlpha" operator="arithmetic" k2="-1" k3="1"/>
<feColorMatrix type="matrix" values="0 0 0 0 0 0 0 0 0 0 0 0 0 0 0 0 0 0 0.25 0"/>
<feBlend mode="normal" in2="shape" result="effect1_innerShadow_13_60"/>
</filter>
<linearGradient id="paint0_linear_13_60" x1="256" y1="127" x2="4.5" y2="125.5" gradientUnits="userSpaceOnUse">
<stop stop-color="#18B64A"/>
<stop offset="0.507812" stop-color="#31B796"/>
<stop offset="1" stop-color="#48AFD2"/>
</linearGradient>
</defs>
</svg>
